<svg width="1034" height="1034" viewBox="0 0 1034 1034" fill="none" xmlns="http://www.w3.org/2000/svg">
<circle cx="517" cy="517" r="487" stroke="#E99463" stroke-width="60"/>
<path d="M286 275.656C286 263.045 296.262 252.822 308.921 252.822H726.079C738.738 252.822 749 263.045 749 275.656V366.989C749 379.6 738.738 389.822 726.079 389.822H308.921C296.262 389.822 286 379.6 286 366.989V275.656Z" fill="#E99463"/>
<path d="M286 472.656C286 460.045 296.264 449.822 308.926 449.822H613.074C625.736 449.822 636 460.045 636 472.656V563.989C636 576.6 625.736 586.822 613.074 586.822H308.926C296.264 586.822 286 576.6 286 563.989V472.656Z" fill="#E99463"/>
<path d="M286 668.822C286 656.12 296.262 645.822 308.921 645.822H726.079C738.738 645.822 749 656.12 749 668.822V760.822C749 773.525 738.738 783.822 726.079 783.822H308.921C296.262 783.822 286 773.525 286 760.822V668.822Z" fill="#E99463"/>
<path d="M517 0C802.531 0 1034 231.469 1034 517C1034 802.531 802.531 1034 517 1034C231.469 1034 0 802.531 0 517C0 231.469 231.469 0 517 0ZM517 60C264.606 60 60 264.606 60 517C60 769.394 264.606 974 517 974C769.394 974 974 769.394 974 517C974 264.606 769.394 60 517 60ZM726.079 645.822C738.738 645.822 749 656.12 749 668.822V760.822C749 773.525 738.738 783.822 726.079 783.822H308.921C296.262 783.822 286 773.525 286 760.822V668.822C286 656.12 296.262 645.822 308.921 645.822H726.079ZM613.074 449.822C625.736 449.822 636 460.045 636 472.655V563.989C636 576.6 625.736 586.822 613.074 586.822H308.926C296.264 586.822 286 576.6 286 563.989V472.655C286 460.045 296.264 449.822 308.926 449.822H613.074ZM726.079 252.822C738.738 252.822 749 263.045 749 275.655V366.989C749 379.6 738.738 389.822 726.079 389.822H308.921C296.262 389.822 286 379.6 286 366.989V275.655C286 263.045 296.262 252.822 308.921 252.822H726.079Z" fill="url(#paint0_linear_5_46)"/>
<defs>
<linearGradient id="paint0_linear_5_46" x1="1296" y1="-25" x2="-262.5" y2="1063.5" gradientUnits="userSpaceOnUse">
<stop stop-color="#D9D9D9" stop-opacity="0"/>
<stop offset="1" stop-opacity="0.8"/>
</linearGradient>
</defs>
</svg>
