<svg width="665" height="160" viewBox="0 0 665 160" fill="none" xmlns="http://www.w3.org/2000/svg">
<g clip-path="url(#clip0_2001_120)">
<path d="M261.357 54.8549C249.519 45.9062 237.529 38.9656 237.529 28.866C237.529 22.8063 242.872 16.5938 250.235 16.5938C263.517 16.5938 271.315 30.4514 278.972 47.7852H283.74V7.92697H250.529C223.096 7.92697 215.004 24.5326 215.004 37.5329C215.004 54.5731 229.014 64.6844 244.892 76.5221C256.013 84.7544 265.396 92.4113 265.396 101.219C265.396 110.755 258.902 116.239 250.67 116.239C241.862 116.239 228.862 104.684 219.772 80.7146H215.004V124.906H252.983C276.377 124.906 288.074 106.422 288.508 91.5423C289.084 74.2086 274.216 64.5435 261.357 54.8666V54.8549Z" fill="#0B0B0B"/>
<path d="M364.748 111.178V64.5318C364.748 44.3091 352.183 38.9774 333.992 38.9774H301.649L301.79 71.9068H307.134C312.771 57.8966 320.85 47.6443 329.517 47.6443C337.021 47.6443 340.345 54.1386 340.345 60.9264V67.2798C328.214 74.5022 295.871 80.562 295.871 102.511C295.871 115.218 304.679 125.764 317.527 125.764C328.648 125.764 336.305 118.541 340.204 110.027C340.92 117.108 345.547 124.906 356.093 124.906H372.699V118.553C367.356 118.553 364.76 114.948 364.76 111.19L364.748 111.178ZM339.91 103.955C337.597 107.279 333.992 111.037 329.658 111.037C323.598 111.037 319.699 106.422 319.699 97.1793C319.699 86.6335 333.851 79.8456 339.922 74.7958V103.967L339.91 103.955Z" fill="#0B0B0B"/>
<path d="M493.988 30.0169C503.23 30.0169 509.008 23.5226 509.008 15.1376C509.008 6.7526 503.23 0.55191 493.988 0.55191C484.746 0.55191 478.827 6.76435 478.827 15.1376C478.827 23.5109 485.039 30.0169 493.988 30.0169Z" fill="#0B0B0B"/>
<path d="M637.532 38.9657V45.319C646.633 45.319 649.228 50.087 644.754 62.9346L633.926 92.2469L620.069 56.5812C616.886 49.6525 618.624 45.319 625.271 45.319V38.9657H556.394V10.0878H549.9C548.021 19.9056 537.769 38.9657 520.294 38.9657V45.319H531.556V104.672C531.556 114.63 534.88 125.904 554.233 125.904H584.274V93.2686H578.93C576.77 100.926 572.284 116.228 562.607 116.228C557.263 116.228 556.394 110.309 556.394 105.541V48.067H583.98C587.304 48.067 590.768 48.5016 592.494 52.5414L621.807 125.035C616.17 137.883 606.505 139.915 589.171 134.571V159.985C593.645 159.985 605.201 160.126 607.221 159.55C618.624 156.227 626.422 133.843 629.605 125.176L654.443 58.0257C657.191 50.6624 659.492 45.319 664.26 45.319V38.9657H637.543H637.532Z" fill="#0B0B0B"/>
<path d="M460.495 111.178V61.9364C460.495 46.4816 453.132 37.2393 438.546 37.2393C425.698 37.2393 418.253 46.1528 412.557 54.4439V38.9774H379.628V45.3307C385.265 45.3307 387.719 48.7951 387.719 52.835V111.178C387.719 115.077 384.83 118.541 379.628 118.541V124.894H420.637V118.541C415.434 118.541 412.545 115.077 412.545 111.178V62.3239C415.869 57.8965 419.709 53.1286 426.121 53.1286C432.181 53.1286 435.657 58.0375 435.657 63.9563V111.178C435.657 115.077 432.768 118.541 427.566 118.541V124.894H468.575V118.541C463.372 118.541 460.483 115.077 460.483 111.178H460.495Z" fill="#0B0B0B"/>
<path d="M508.433 111.178V38.9774H475.503V45.3308C481.14 45.3308 483.595 48.7952 483.595 52.835V111.178C483.595 115.077 480.706 118.541 475.503 118.541V124.895H516.513V118.541C511.31 118.541 508.421 115.077 508.421 111.178H508.433Z" fill="#0B0B0B"/>
<path d="M166.467 91.1548L160.09 80.3741L129.251 98.6238L163.508 56.2524L168.687 53.3048L167.407 51.4375L169.756 48.5251L158.951 39.776L153.995 45.9062L54.1503 102.652L91.0726 59.5289L159.832 22.912L153.303 10.6398L115.852 30.5807L134.29 9.04267L123.72 0L82.2178 48.4898L40.9856 70.4389L72.5527 29.9113L92.3292 19.9174L86.058 7.50424L28.4198 36.6522L44.1447 16.453L33.1643 7.91527L0 50.545L0.516727 50.956L6.70567 63.2047L43.487 44.6144L9.97042 87.6434L15.4547 91.9181L18.7195 98.0484L57.4386 77.4381L14.8088 127.243L25.3664 136.274L27.4921 133.796L130.344 75.1598L96.1929 117.402L96.7566 117.86L96.6979 117.884L103.779 129.85L149.192 102.981L131.706 130.391L143.426 137.86L171.271 94.2199L166.467 91.1548Z" fill="#0B0B0B"/>
</g>
<defs>
<clipPath id="clip0_2001_120">
<rect width="665" height="160" fill="white"/>
</clipPath>
</defs>
</svg>
